<svg id="b8a702bd-0fc4-4590-9034-f7d87397b0c7" data-name="Layer 1" xmlns="http://www.w3.org/2000/svg" width="404.56" height="523.46" viewBox="0 0 404.56 523.46"><defs><style>.a06cab51-027b-4201-80fe-5d2f5774429d,.a5d422d6-d504-415c-b111-2f9f52e1fc1f{fill:#def0f9;}.b78c8d64-4095-41a1-9d96-53c5946a039b{fill:#0053af;}.a8799730-ebde-4d7d-ac6c-85cf1c7e8aba{fill:#00a8ff;}.edbd1a36-b101-4c58-bfc9-3e755ad733c3{fill:none;stroke-width:6px;}.a5d422d6-d504-415c-b111-2f9f52e1fc1f,.edbd1a36-b101-4c58-bfc9-3e755ad733c3{stroke:#00a8ff;stroke-miterlimit:10;}</style></defs><title>about-illustration</title><polygon class="a06cab51-027b-4201-80fe-5d2f5774429d" points="169.76 58.91 185.89 65.2 200.14 22.82 183.63 16.46 169.76 58.91"/><circle class="a06cab51-027b-4201-80fe-5d2f5774429d" cx="177.78" cy="38.04" r="22.36"/><path class="a06cab51-027b-4201-80fe-5d2f5774429d" d="M183.33,72.34h0a35.07,35.07,0,0,1,35.07,35.07v41.15a0,0,0,0,1,0,0H148.34a0,0,0,0,1,0,0V107.33A35,35,0,0,1,183.33,72.34Z"/><polygon class="a06cab51-027b-4201-80fe-5d2f5774429d" points="148.34 148.92 163.63 158.3 212.04 81.94 195.49 74.51 179.74 78.3 162.04 93.43 148.34 148.92"/><polygon class="b78c8d64-4095-41a1-9d96-53c5946a039b" points="160.9 156.54 176.51 166.11 225.92 88.17 209.02 80.59 192.95 84.45 174.88 99.9 160.9 156.54"/><path class="b78c8d64-4095-41a1-9d96-53c5946a039b" d="M196.62,78.37h0a35.8,35.8,0,0,1,35.8,35.8v42a0,0,0,0,1,0,0H160.9a0,0,0,0,1,0,0V114.09A35.72,35.72,0,0,1,196.62,78.37Z"/><path class="a8799730-ebde-4d7d-ac6c-85cf1c7e8aba" d="M212.23,85.5h0a35.8,35.8,0,0,1,35.8,35.8v44.82a0,0,0,0,1,0,0H176.51a0,0,0,0,1,0,0v-44.9A35.72,35.72,0,0,1,212.23,85.5Z"/><path class="edbd1a36-b101-4c58-bfc9-3e755ad733c3" d="M209.57,90.31" transform="translate(-19.19 -17.86)"/><polygon class="b78c8d64-4095-41a1-9d96-53c5946a039b" points="185.39 64.91 201.52 71.2 215.77 28.82 199.26 22.46 185.39 64.91"/><circle class="b78c8d64-4095-41a1-9d96-53c5946a039b" cx="193.41" cy="44.04" r="22.36"/><circle class="a8799730-ebde-4d7d-ac6c-85cf1c7e8aba" cx="209.26" cy="50.21" r="22.36"/><path class="edbd1a36-b101-4c58-bfc9-3e755ad733c3" d="M83.45,578.4" transform="translate(-19.19 -17.86)"/><path class="edbd1a36-b101-4c58-bfc9-3e755ad733c3" d="M348.68,578.4" transform="translate(-19.19 -17.86)"/><path class="edbd1a36-b101-4c58-bfc9-3e755ad733c3" d="M217.17,578.55" transform="translate(-19.19 -17.86)"/><line class="a5d422d6-d504-415c-b111-2f9f52e1fc1f" y1="119.61" x2="404.56" y2="122.85"/><line class="a5d422d6-d504-415c-b111-2f9f52e1fc1f" x1="210.26" x2="210.26" y2="523.46"/><polygon class="a06cab51-027b-4201-80fe-5d2f5774429d" points="39.99 58.91 56.12 65.2 70.37 22.82 53.86 16.46 39.99 58.91"/><circle class="a06cab51-027b-4201-80fe-5d2f5774429d" cx="48.01" cy="38.04" r="22.36"/><path class="a06cab51-027b-4201-80fe-5d2f5774429d" d="M53.56,72.34h0a35.07,35.07,0,0,1,35.07,35.07v41.15a0,0,0,0,1,0,0H18.57a0,0,0,0,1,0,0V107.33A35,35,0,0,1,53.56,72.34Z"/><polygon class="a06cab51-027b-4201-80fe-5d2f5774429d" points="18.57 148.92 33.86 158.3 82.27 81.94 65.71 74.51 49.97 78.3 32.27 93.43 18.57 148.92"/><polygon class="b78c8d64-4095-41a1-9d96-53c5946a039b" points="31.13 156.54 46.74 166.11 96.14 88.17 79.25 80.59 63.18 84.45 45.11 99.9 31.13 156.54"/><path class="b78c8d64-4095-41a1-9d96-53c5946a039b" d="M66.84,78.37h0a35.8,35.8,0,0,1,35.8,35.8v42a0,0,0,0,1,0,0H31.12a0,0,0,0,1,0,0V114.09A35.72,35.72,0,0,1,66.84,78.37Z"/><path class="a8799730-ebde-4d7d-ac6c-85cf1c7e8aba" d="M82.45,85.5h0a35.8,35.8,0,0,1,35.8,35.8v44.82a0,0,0,0,1,0,0H46.74a0,0,0,0,1,0,0v-44.9A35.72,35.72,0,0,1,82.45,85.5Z"/><path class="edbd1a36-b101-4c58-bfc9-3e755ad733c3" d="M79.8,90.31" transform="translate(-19.19 -17.86)"/><polygon class="b78c8d64-4095-41a1-9d96-53c5946a039b" points="55.62 64.91 71.74 71.2 86 28.82 69.48 22.46 55.62 64.91"/><circle class="b78c8d64-4095-41a1-9d96-53c5946a039b" cx="63.63" cy="44.04" r="22.36"/><circle class="a8799730-ebde-4d7d-ac6c-85cf1c7e8aba" cx="79.49" cy="50.21" r="22.36"/><line class="a5d422d6-d504-415c-b111-2f9f52e1fc1f" x1="80.49" x2="80.49" y2="523.46"/><polygon class="a06cab51-027b-4201-80fe-5d2f5774429d" points="300.07 58.91 316.19 65.2 330.45 22.82 313.94 16.46 300.07 58.91"/><circle class="a06cab51-027b-4201-80fe-5d2f5774429d" cx="308.09" cy="38.04" r="22.36"/><path class="a06cab51-027b-4201-80fe-5d2f5774429d" d="M313.64,72.34h0a35.07,35.07,0,0,1,35.07,35.07v41.15a0,0,0,0,1,0,0H278.65a0,0,0,0,1,0,0V107.33A35,35,0,0,1,313.64,72.34Z"/><polygon class="a06cab51-027b-4201-80fe-5d2f5774429d" points="278.65 148.92 293.94 158.3 342.35 81.94 325.79 74.51 310.05 78.3 292.35 93.43 278.65 148.92"/><polygon class="b78c8d64-4095-41a1-9d96-53c5946a039b" points="291.2 156.54 306.81 166.11 356.23 88.17 339.33 80.59 323.25 84.45 305.19 99.9 291.2 156.54"/><path class="b78c8d64-4095-41a1-9d96-53c5946a039b" d="M326.92,78.37h0a35.8,35.8,0,0,1,35.8,35.8v42a0,0,0,0,1,0,0H291.2a0,0,0,0,1,0,0V114.09a35.72,35.72,0,0,1,35.72-35.72Z"/><path class="a8799730-ebde-4d7d-ac6c-85cf1c7e8aba" d="M342.53,85.5h0a35.8,35.8,0,0,1,35.8,35.8v44.82a0,0,0,0,1,0,0H306.82a0,0,0,0,1,0,0v-44.9A35.72,35.72,0,0,1,342.53,85.5Z"/><path class="edbd1a36-b101-4c58-bfc9-3e755ad733c3" d="M339.88,90.31" transform="translate(-19.19 -17.86)"/><polygon class="b78c8d64-4095-41a1-9d96-53c5946a039b" points="315.7 64.91 331.82 71.2 346.08 28.82 329.56 22.46 315.7 64.91"/><circle class="b78c8d64-4095-41a1-9d96-53c5946a039b" cx="323.71" cy="44.04" r="22.36"/><circle class="a8799730-ebde-4d7d-ac6c-85cf1c7e8aba" cx="339.57" cy="50.21" r="22.36"/><polygon class="a06cab51-027b-4201-80fe-5d2f5774429d" points="169.76 226.09 185.89 232.37 200.14 189.99 183.63 183.63 169.76 226.09"/><circle class="a06cab51-027b-4201-80fe-5d2f5774429d" cx="177.78" cy="205.21" r="22.36"/><path class="a06cab51-027b-4201-80fe-5d2f5774429d" d="M183.33,239.52h0a35.07,35.07,0,0,1,35.07,35.07v41.15a0,0,0,0,1,0,0H148.34a0,0,0,0,1,0,0V274.51a35,35,0,0,1,35-35Z"/><polygon class="a06cab51-027b-4201-80fe-5d2f5774429d" points="148.34 316.1 163.63 325.48 212.04 249.12 195.49 241.69 179.74 245.48 162.04 260.6 148.34 316.1"/><polygon class="b78c8d64-4095-41a1-9d96-53c5946a039b" points="160.9 323.72 176.51 333.29 225.92 255.35 209.02 247.76 192.95 251.63 174.88 267.07 160.9 323.72"/><path class="b78c8d64-4095-41a1-9d96-53c5946a039b" d="M196.62,245.55h0a35.8,35.8,0,0,1,35.8,35.8v42a0,0,0,0,1,0,0H160.9a0,0,0,0,1,0,0V281.26A35.72,35.72,0,0,1,196.62,245.55Z"/><path class="a8799730-ebde-4d7d-ac6c-85cf1c7e8aba" d="M212.23,252.67h0a35.8,35.8,0,0,1,35.8,35.8v44.82a0,0,0,0,1,0,0H176.51a0,0,0,0,1,0,0v-44.9a35.72,35.72,0,0,1,35.72-35.72Z"/><path class="edbd1a36-b101-4c58-bfc9-3e755ad733c3" d="M209.57,257.49" transform="translate(-19.19 -17.86)"/><polygon class="b78c8d64-4095-41a1-9d96-53c5946a039b" points="185.39 232.09 201.52 238.37 215.77 195.99 199.26 189.63 185.39 232.09"/><circle class="b78c8d64-4095-41a1-9d96-53c5946a039b" cx="193.41" cy="211.21" r="22.36"/><circle class="a8799730-ebde-4d7d-ac6c-85cf1c7e8aba" cx="209.26" cy="217.39" r="22.36"/><line class="a5d422d6-d504-415c-b111-2f9f52e1fc1f" y1="286.79" x2="404.56" y2="290.02"/><polygon class="a06cab51-027b-4201-80fe-5d2f5774429d" points="39.99 226.09 56.12 232.37 70.37 189.99 53.86 183.63 39.99 226.09"/><circle class="a06cab51-027b-4201-80fe-5d2f5774429d" cx="48.01" cy="205.21" r="22.36"/><path class="a06cab51-027b-4201-80fe-5d2f5774429d" d="M53.56,239.52h0a35.07,35.07,0,0,1,35.07,35.07v41.15a0,0,0,0,1,0,0H18.57a0,0,0,0,1,0,0V274.51a35,35,0,0,1,35-35Z"/><polygon class="a06cab51-027b-4201-80fe-5d2f5774429d" points="18.57 316.1 33.86 325.48 82.27 249.12 65.71 241.69 49.97 245.48 32.27 260.6 18.57 316.1"/><polygon class="b78c8d64-4095-41a1-9d96-53c5946a039b" points="31.13 323.72 46.74 333.29 96.14 255.35 79.25 247.76 63.18 251.63 45.11 267.07 31.13 323.72"/><path class="b78c8d64-4095-41a1-9d96-53c5946a039b" d="M66.84,245.55h0a35.8,35.8,0,0,1,35.8,35.8v42a0,0,0,0,1,0,0H31.12a0,0,0,0,1,0,0V281.26a35.72,35.72,0,0,1,35.72-35.72Z"/><path class="a8799730-ebde-4d7d-ac6c-85cf1c7e8aba" d="M82.45,252.67h0a35.8,35.8,0,0,1,35.8,35.8v44.82a0,0,0,0,1,0,0H46.74a0,0,0,0,1,0,0v-44.9a35.72,35.72,0,0,1,35.72-35.72Z"/><path class="edbd1a36-b101-4c58-bfc9-3e755ad733c3" d="M79.8,257.49" transform="translate(-19.19 -17.86)"/><polygon class="b78c8d64-4095-41a1-9d96-53c5946a039b" points="55.62 232.09 71.74 238.37 86 195.99 69.48 189.63 55.62 232.09"/><circle class="b78c8d64-4095-41a1-9d96-53c5946a039b" cx="63.63" cy="211.21" r="22.36"/><circle class="a8799730-ebde-4d7d-ac6c-85cf1c7e8aba" cx="79.49" cy="217.39" r="22.36"/><polygon class="a06cab51-027b-4201-80fe-5d2f5774429d" points="300.07 226.09 316.19 232.37 330.45 189.99 313.94 183.63 300.07 226.09"/><circle class="a06cab51-027b-4201-80fe-5d2f5774429d" cx="308.09" cy="205.21" r="22.36"/><path class="a06cab51-027b-4201-80fe-5d2f5774429d" d="M313.64,239.52h0a35.07,35.07,0,0,1,35.07,35.07v41.15a0,0,0,0,1,0,0H278.65a0,0,0,0,1,0,0V274.51A35,35,0,0,1,313.64,239.52Z"/><polygon class="a06cab51-027b-4201-80fe-5d2f5774429d" points="278.65 316.1 293.94 325.48 342.35 249.12 325.79 241.69 310.05 245.48 292.35 260.6 278.65 316.1"/><polygon class="b78c8d64-4095-41a1-9d96-53c5946a039b" points="291.2 323.72 306.81 333.29 356.23 255.35 339.33 247.76 323.25 251.63 305.19 267.07 291.2 323.72"/><path class="b78c8d64-4095-41a1-9d96-53c5946a039b" d="M326.92,245.55h0a35.8,35.8,0,0,1,35.8,35.8v42a0,0,0,0,1,0,0H291.2a0,0,0,0,1,0,0V281.26a35.72,35.72,0,0,1,35.72-35.72Z"/><path class="a8799730-ebde-4d7d-ac6c-85cf1c7e8aba" d="M342.53,252.67h0a35.8,35.8,0,0,1,35.8,35.8v44.82a0,0,0,0,1,0,0H306.82a0,0,0,0,1,0,0v-44.9A35.72,35.72,0,0,1,342.53,252.67Z"/><path class="edbd1a36-b101-4c58-bfc9-3e755ad733c3" d="M339.88,257.49" transform="translate(-19.19 -17.86)"/><polygon class="b78c8d64-4095-41a1-9d96-53c5946a039b" points="315.7 232.09 331.82 238.37 346.08 195.99 329.56 189.63 315.7 232.09"/><circle class="b78c8d64-4095-41a1-9d96-53c5946a039b" cx="323.71" cy="211.21" r="22.36"/><circle class="a8799730-ebde-4d7d-ac6c-85cf1c7e8aba" cx="339.57" cy="217.39" r="22.36"/><polygon class="a06cab51-027b-4201-80fe-5d2f5774429d" points="169.76 394.09 185.89 400.37 200.14 357.99 183.63 351.63 169.76 394.09"/><circle class="a06cab51-027b-4201-80fe-5d2f5774429d" cx="177.78" cy="373.21" r="22.36"/><path class="a06cab51-027b-4201-80fe-5d2f5774429d" d="M183.33,407.52h0a35.07,35.07,0,0,1,35.07,35.07v41.15a0,0,0,0,1,0,0H148.34a0,0,0,0,1,0,0V442.51A35,35,0,0,1,183.33,407.52Z"/><polygon class="a06cab51-027b-4201-80fe-5d2f5774429d" points="148.34 484.1 163.63 493.48 212.04 417.12 195.49 409.69 179.74 413.48 162.04 428.6 148.34 484.1"/><polygon class="b78c8d64-4095-41a1-9d96-53c5946a039b" points="160.9 491.72 176.51 501.29 225.92 423.35 209.02 415.76 192.95 419.63 174.88 435.07 160.9 491.72"/><path class="b78c8d64-4095-41a1-9d96-53c5946a039b" d="M196.62,413.55h0a35.8,35.8,0,0,1,35.8,35.8v42a0,0,0,0,1,0,0H160.9a0,0,0,0,1,0,0V449.26A35.72,35.72,0,0,1,196.62,413.55Z"/><path class="a8799730-ebde-4d7d-ac6c-85cf1c7e8aba" d="M212.23,420.67h0a35.8,35.8,0,0,1,35.8,35.8v44.82a0,0,0,0,1,0,0H176.51a0,0,0,0,1,0,0v-44.9A35.72,35.72,0,0,1,212.23,420.67Z"/><path class="edbd1a36-b101-4c58-bfc9-3e755ad733c3" d="M209.57,425.49" transform="translate(-19.19 -17.86)"/><polygon class="b78c8d64-4095-41a1-9d96-53c5946a039b" points="185.39 400.09 201.52 406.37 215.77 363.99 199.26 357.63 185.39 400.09"/><circle class="b78c8d64-4095-41a1-9d96-53c5946a039b" cx="193.41" cy="379.21" r="22.36"/><circle class="a8799730-ebde-4d7d-ac6c-85cf1c7e8aba" cx="209.26" cy="385.39" r="22.36"/><line class="a5d422d6-d504-415c-b111-2f9f52e1fc1f" y1="454.79" x2="404.56" y2="458.02"/><polygon class="a06cab51-027b-4201-80fe-5d2f5774429d" points="39.99 394.09 56.12 400.37 70.37 357.99 53.86 351.63 39.99 394.09"/><circle class="a06cab51-027b-4201-80fe-5d2f5774429d" cx="48.01" cy="373.21" r="22.36"/><path class="a06cab51-027b-4201-80fe-5d2f5774429d" d="M53.56,407.52h0a35.07,35.07,0,0,1,35.07,35.07v41.15a0,0,0,0,1,0,0H18.57a0,0,0,0,1,0,0V442.51A35,35,0,0,1,53.56,407.52Z"/><polygon class="a06cab51-027b-4201-80fe-5d2f5774429d" points="18.57 484.1 33.86 493.48 82.27 417.12 65.71 409.69 49.97 413.48 32.27 428.6 18.57 484.1"/><polygon class="b78c8d64-4095-41a1-9d96-53c5946a039b" points="31.13 491.72 46.74 501.29 96.14 423.35 79.25 415.76 63.18 419.63 45.11 435.07 31.13 491.72"/><path class="b78c8d64-4095-41a1-9d96-53c5946a039b" d="M66.84,413.55h0a35.8,35.8,0,0,1,35.8,35.8v42a0,0,0,0,1,0,0H31.12a0,0,0,0,1,0,0V449.26A35.72,35.72,0,0,1,66.84,413.55Z"/><path class="a8799730-ebde-4d7d-ac6c-85cf1c7e8aba" d="M82.45,420.67h0a35.8,35.8,0,0,1,35.8,35.8v44.82a0,0,0,0,1,0,0H46.74a0,0,0,0,1,0,0v-44.9A35.72,35.72,0,0,1,82.45,420.67Z"/><path class="edbd1a36-b101-4c58-bfc9-3e755ad733c3" d="M79.8,425.49" transform="translate(-19.19 -17.86)"/><polygon class="b78c8d64-4095-41a1-9d96-53c5946a039b" points="55.62 400.09 71.74 406.37 86 363.99 69.48 357.63 55.62 400.09"/><circle class="b78c8d64-4095-41a1-9d96-53c5946a039b" cx="63.63" cy="379.21" r="22.36"/><circle class="a8799730-ebde-4d7d-ac6c-85cf1c7e8aba" cx="79.49" cy="385.39" r="22.36"/><polygon class="a06cab51-027b-4201-80fe-5d2f5774429d" points="300.07 394.09 316.19 400.37 330.45 357.99 313.94 351.63 300.07 394.09"/><circle class="a06cab51-027b-4201-80fe-5d2f5774429d" cx="308.09" cy="373.21" r="22.36"/><path class="a06cab51-027b-4201-80fe-5d2f5774429d" d="M313.64,407.52h0a35.07,35.07,0,0,1,35.07,35.07v41.15a0,0,0,0,1,0,0H278.65a0,0,0,0,1,0,0V442.51a35,35,0,0,1,35-35Z"/><polygon class="a06cab51-027b-4201-80fe-5d2f5774429d" points="278.65 484.1 293.94 493.48 342.35 417.12 325.79 409.69 310.05 413.48 292.35 428.6 278.65 484.1"/><polygon class="b78c8d64-4095-41a1-9d96-53c5946a039b" points="291.2 491.72 306.81 501.29 356.23 423.35 339.33 415.76 323.25 419.63 305.19 435.07 291.2 491.72"/><path class="b78c8d64-4095-41a1-9d96-53c5946a039b" d="M326.92,413.55h0a35.8,35.8,0,0,1,35.8,35.8v42a0,0,0,0,1,0,0H291.2a0,0,0,0,1,0,0V449.26A35.72,35.72,0,0,1,326.92,413.55Z"/><path class="a8799730-ebde-4d7d-ac6c-85cf1c7e8aba" d="M342.53,420.67h0a35.8,35.8,0,0,1,35.8,35.8v44.82a0,0,0,0,1,0,0H306.82a0,0,0,0,1,0,0v-44.9a35.72,35.72,0,0,1,35.72-35.72Z"/><path class="edbd1a36-b101-4c58-bfc9-3e755ad733c3" d="M339.88,425.49" transform="translate(-19.19 -17.86)"/><polygon class="b78c8d64-4095-41a1-9d96-53c5946a039b" points="315.7 400.09 331.82 406.37 346.08 363.99 329.56 357.63 315.7 400.09"/><circle class="b78c8d64-4095-41a1-9d96-53c5946a039b" cx="323.71" cy="379.21" r="22.36"/><circle class="a8799730-ebde-4d7d-ac6c-85cf1c7e8aba" cx="339.57" cy="385.39" r="22.36"/><line class="a5d422d6-d504-415c-b111-2f9f52e1fc1f" x1="340.57" x2="340.57" y2="523.46"/></svg>