<svg id="Layer_1" data-name="Layer 1" xmlns="http://www.w3.org/2000/svg" width="141.65" height="141.65" viewBox="0 0 141.65 141.65"><defs><style>.cls-1{fill:#00a8ff;stroke:#00a8ff;}.cls-1,.cls-2,.cls-3,.cls-4,.cls-5{stroke-miterlimit:10;}.cls-2,.cls-4{fill:#fff;}.cls-2,.cls-3{stroke:#fff;}.cls-2{stroke-width:2px;}.cls-3,.cls-5{fill:none;stroke-linecap:round;}.cls-3,.cls-4,.cls-5{stroke-width:3px;}.cls-4{stroke:#04b389;}.cls-5{stroke:#0c206d;}</style></defs><title>lifecycle-icon</title><circle class="cls-1" cx="70.83" cy="70.83" r="70.33"/><path class="cls-2" d="M101,118.76" transform="translate(-3.57 -4.2)"/><path class="cls-3" d="M72.66,105" transform="translate(-3.57 -4.2)"/><path class="cls-4" d="M110.29,96.46" transform="translate(-3.57 -4.2)"/><path class="cls-4" d="M92.47,70.77" transform="translate(-3.57 -4.2)"/><path class="cls-3" d="M100.33,99.58" transform="translate(-3.57 -4.2)"/><path class="cls-4" d="M110.58,71.64" transform="translate(-3.57 -4.2)"/><path class="cls-3" d="M47.44,99.58" transform="translate(-3.57 -4.2)"/><path class="cls-4" d="M68.74,71.64" transform="translate(-3.57 -4.2)"/><path class="cls-3" d="M68.74,25.44,73.68,30a44.86,44.86,0,0,0-42.4,30.2" transform="translate(-3.57 -4.2)"/><path class="cls-3" d="M122.86,69l-4.33,5.86A44.88,44.88,0,0,0,87,32" transform="translate(-3.57 -4.2)"/><path class="cls-3" d="M78.78,124.15l-5.1-4.44a44.84,44.84,0,0,0,43-32.21" transform="translate(-3.57 -4.2)"/><path class="cls-3" d="M24,80l4.84-5.1a44.87,44.87,0,0,0,29.79,42.26" transform="translate(-3.57 -4.2)"/><circle class="cls-5" cx="70.46" cy="69.37" r="23.09"/></svg>