<svg id="Layer_1" data-name="Layer 1" xmlns="http://www.w3.org/2000/svg" width="41.22" height="21.9" viewBox="0 0 41.22 21.9"><defs><style>.cls-1,.cls-4{fill:none;}.cls-1,.cls-2{stroke:#192d7c;}.cls-1,.cls-2,.cls-4{stroke-miterlimit:10;}.cls-2{fill:#2bc9ff;}.cls-3{fill:#192d7c;}.cls-4{stroke:#fff;stroke-linecap:round;stroke-width:0.5px;}</style></defs><title>mission-icon</title><polygon class="cls-1" points="1.6 21.39 13.86 12.89 20.59 8.22 39.62 21.39 1.6 21.39"/><path class="cls-2" d="M21.54,1.8l0,5.43a6.71,6.71,0,0,1,4.8,0,10.07,10.07,0,0,0,6.7,0L31.23,4.66,33.06,1.8a12,12,0,0,1-6.45,0A11.42,11.42,0,0,0,21.54,1.8Z" transform="translate(-0.95 -0.98)"/><rect class="cls-3" x="20.02" y="0.21" width="1.05" height="8.38"/><polygon class="cls-2" points="17.09 17.02 12.62 13.77 20.51 8.3 28.18 13.6 23.98 17.02 20.54 13.6 17.09 17.02"/><path class="cls-4" d="M22.55,2.93a7,7,0,0,1,4.37.38c2.47.79,3.88.16,3.91,0" transform="translate(-0.95 -0.98)"/></svg>