<svg xmlns="http://www.w3.org/2000/svg" width="1124.01" height="166.77" viewBox="0 0 1124.01 166.77"><defs><style>.cls-1{fill:#0170c4;}.cls-10,.cls-19,.cls-2,.cls-21,.cls-9{fill:#182c7d;}.cls-3{fill:#1a45a7;}.cls-23,.cls-4,.cls-6{fill:#2bc9ff;}.cls-18,.cls-21,.cls-4{stroke:#182c7d;}.cls-10,.cls-11,.cls-14,.cls-17,.cls-18,.cls-19,.cls-20,.cls-21,.cls-22,.cls-23,.cls-4,.cls-9{stroke-miterlimit:10;}.cls-10,.cls-21,.cls-22,.cls-4{stroke-width:3px;}.cls-5{fill:#1b2d86;}.cls-7{fill:#1a2f8b;}.cls-8{fill:#192d85;}.cls-10,.cls-14,.cls-20,.cls-23,.cls-9{stroke:#2bc9ff;}.cls-11,.cls-14,.cls-9{stroke-width:2px;}.cls-11,.cls-14,.cls-17,.cls-18,.cls-20,.cls-22{fill:none;}.cls-11,.cls-17,.cls-19,.cls-22{stroke:#0170c4;}.cls-12{fill:#172c7e;}.cls-13{fill:#1a2e85;}.cls-15{fill:#1a2f88;}.cls-16{fill:#192d83;}.cls-17{stroke-width:5px;}.cls-18,.cls-19,.cls-20{stroke-width:4px;}.cls-24{fill:#2eb18f;}.cls-25{fill:#1b2f86;}.cls-26{fill:#192f85;}</style></defs><title>geometrical-shapes-small</title><g id="shape_1" data-name="shape 1"><rect class="cls-1" y="0.1" width="86.13" height="82.76"/><ellipse class="cls-2" cx="43.6" cy="42.01" rx="42.87" ry="41.9"/><ellipse class="cls-3" cx="43.6" cy="41.35" rx="27.03" ry="26.42"/><ellipse class="cls-4" cx="43.06" cy="41.35" rx="13.89" ry="13.58"/></g><g id="shape_2" data-name="shape 2"><rect class="cls-5" x="129.19" y="0.1" width="43.06" height="41.38"/><rect class="cls-3" x="129.19" y="41.48" width="43.06" height="41.38"/><rect class="cls-5" x="86.13" y="41.48" width="43.06" height="41.38"/><path class="cls-6" d="M128.55,41.71s-1.8,16.84-13.33,27.85-28.45,12-28.45,12,1.8-16.84,13.33-27.85S128.55,41.71,128.55,41.71Z" transform="translate(0 0.1)"/><path class="cls-5" d="M171.61,82s-1.79-16.84-13.33-27.85-28.45-12-28.45-12S131.63,59,143.17,70,171.61,82,171.61,82Z" transform="translate(0 0.1)"/><rect class="cls-3" x="86.13" y="0.1" width="43.06" height="41.38"/><path class="cls-5" d="M128.55,40.62s-1.8-16.84-13.33-27.85S86.77.76,86.77.76s1.8,16.84,13.33,27.85S128.55,40.62,128.55,40.62Z" transform="translate(0 0.1)"/><path class="cls-6" d="M171.61.76s-1.79,16.84-13.33,27.85-28.45,12-28.45,12,1.8-16.84,13.34-27.85S171.61.76,171.61.76Z" transform="translate(0 0.1)"/></g><g id="shape_3" data-name="shape 3"><rect class="cls-1" x="172.09" y="0.1" width="86.13" height="82.76"/><polygon class="cls-7" points="177.87 41.48 215.24 5.55 252.45 41.48 215.16 77.73 177.87 41.48"/><rect class="cls-6" x="193.71" y="20.82" width="42.93" height="41.87"/></g><g id="shape_4" data-name="shape 4"><rect class="cls-8" x="431.88" y="0.1" width="86.97" height="81.57"/><path class="cls-6" d="M438,4.84h32.09a5.73,5.73,0,0,1,5.73,5.73V40.69a0,0,0,0,1,0,0H448.19A10.15,10.15,0,0,1,438,30.54V4.84A0,0,0,0,1,438,4.84Z"/><path class="cls-6" d="M475.85,40.69h32.09a5.73,5.73,0,0,1,5.73,5.73V76.54a0,0,0,0,1,0,0H486a10.15,10.15,0,0,1-10.15-10.15V40.69A0,0,0,0,1,475.85,40.69Z"/><path class="cls-3" d="M486,4.84h27.66a0,0,0,0,1,0,0V35a5.73,5.73,0,0,1-5.73,5.73H475.85a0,0,0,0,1,0,0V15A10.15,10.15,0,0,1,486,4.84Z"/><path class="cls-3" d="M448.19,40.69h27.66a0,0,0,0,1,0,0V70.81a5.73,5.73,0,0,1-5.73,5.73H438a0,0,0,0,1,0,0V50.84A10.15,10.15,0,0,1,448.19,40.69Z"/></g><g id="shape_5" data-name="shape 5"><rect class="cls-1" x="1037.09" y="83.69" width="86.81" height="83.08"/><circle class="cls-9" cx="1056.04" cy="99.97" r="10.26"/><circle class="cls-9" cx="1082.14" cy="99.97" r="10.26"/><circle class="cls-9" cx="1108.24" cy="99.97" r="10.26"/><circle class="cls-9" cx="1056.29" cy="124.99" r="10.26"/><circle class="cls-9" cx="1082.39" cy="124.99" r="10.26"/><circle class="cls-9" cx="1108.49" cy="124.99" r="10.26"/><circle class="cls-9" cx="1056.29" cy="150.7" r="10.26"/><circle class="cls-9" cx="1082.39" cy="150.7" r="10.26"/><circle class="cls-9" cx="1108.49" cy="150.7" r="10.26"/></g><g id="shape_6" data-name="shape 6"><rect class="cls-2" x="172.09" y="82.78" width="86.13" height="83.9"/><rect class="cls-10" x="193.02" y="100.96" width="46.83" height="46.83" transform="translate(151.34 -116.52) rotate(45)"/><rect class="cls-11" x="190.88" y="100.87" width="46.07" height="46.07" transform="translate(34.5 -46.06) rotate(13.39)"/><rect class="cls-1" x="208.94" y="117.72" width="12.44" height="12.44" transform="translate(161.51 -118.4) rotate(47.58)"/></g><g id="shape_7" data-name="shape 7"><rect class="cls-3" x="516.03" y="83.1" width="88.98" height="83.58"/><path class="cls-6" d="M604.73,166s-3.68-34.84-27.31-57.6-58.25-24.84-58.25-24.84,3.68,34.84,27.31,57.6S604.73,166,604.73,166Z" transform="translate(0 0.1)"/><path class="cls-12" d="M519.17,164.84s3.68-34.83,27.31-57.6S604.73,82.4,604.73,82.4s-3.68,34.84-27.31,57.6S519.17,164.84,519.17,164.84Z" transform="translate(0 0.1)"/><path class="cls-6" d="M590.42,123.38S577.83,113,562.3,113s-28.12,10.37-28.12,10.37,12.59,10.38,28.12,10.38S590.42,123.38,590.42,123.38Z" transform="translate(0 0.1)"/></g><g id="shape_8" data-name="shape 8"><rect class="cls-13" x="605.01" y="83.1" width="86.13" height="83.59"/><polygon class="cls-1" points="648.08 124.89 605.01 166.68 691.14 166.68 648.08 124.89"/><polygon class="cls-1" points="691.14 83.1 648.08 124.89 605.01 83.1 691.14 83.1"/><polygon class="cls-14" points="648.48 90.05 615.13 123.72 648.48 157.4 681.82 123.72 648.48 90.05"/><polygon class="cls-14" points="648.48 99.07 624.64 123.15 648.48 147.23 672.32 123.15 648.48 99.07"/><polygon class="cls-14" points="648.48 108.83 634.39 123.05 648.48 137.28 662.56 123.05 648.48 108.83"/><polygon class="cls-6" points="648.48 116.16 641.23 123.48 648.48 130.8 655.73 123.48 648.48 116.16"/></g><g id="shape_9" data-name="shape 9"><rect class="cls-15" x="734.07" y="124.89" width="42.9" height="41.79"/><rect class="cls-6" x="691.16" y="124.88" width="42.9" height="41.8"/><rect class="cls-15" x="691.15" y="83.11" width="42.9" height="41.79" transform="translate(1425.21 208.11) rotate(180)"/><rect class="cls-6" x="734.08" y="83.11" width="42.9" height="41.79" transform="translate(1511.07 208.11) rotate(180)"/><path class="cls-1" d="M734.1,166.58A42,42,0,0,0,692,125c-.27,0-.57,0-.85,0v41.6Z" transform="translate(0 0.1)"/><path class="cls-1" d="M734,166.58A42,42,0,0,1,776.18,125c.28,0,.57,0,.85,0v41.6Z" transform="translate(0 0.1)"/><path class="cls-1" d="M734.12,83.19A42,42,0,0,1,692,124.82c-.28,0-.57,0-.85,0V83.19Z" transform="translate(0 0.1)"/><path class="cls-1" d="M734.07,83.19a42,42,0,0,0,42.13,41.63c.28,0,.58,0,.85,0V83.19Z" transform="translate(0 0.1)"/></g><g id="shape_10" data-name="shape 10"><rect class="cls-16" x="518.03" y="0.1" width="86.98" height="83"/><ellipse class="cls-17" cx="560.71" cy="40.92" rx="32" ry="32.03"/><ellipse class="cls-6" cx="560.55" cy="40.92" rx="18.54" ry="18.56"/></g><g id="shape_11" data-name="shape 11"><rect class="cls-2" x="690.98" y="41.67" width="43.04" height="41.54"/><rect class="cls-1" x="734.02" y="41.67" width="43.04" height="42"/><path class="cls-3" d="M734,83.11s-1.46-17.18-13.34-28.66S691,41.56,691,41.56s1.46,17.18,13.34,28.66S734,83.11,734,83.11Z" transform="translate(0 0.1)"/><path class="cls-6" d="M777.05,41.56s-1.47,17.18-13.35,28.66S734,83.11,734,83.11s1.46-17.18,13.34-28.66S777.05,41.56,777.05,41.56Z" transform="translate(0 0.1)"/><rect class="cls-1" x="690.98" y="0.1" width="43.04" height="41.54"/><path class="cls-6" d="M734,0s-1.47,17.18-13.35,28.66S691,41.56,691,41.56s1.47-17.19,13.35-28.66S734,0,734,0Z" transform="translate(0 0.1)"/><rect class="cls-3" x="734.02" y="0.1" width="43.04" height="41.54"/><path class="cls-1" d="M777,41.37S775.53,24.23,763.7,12.8,734.12,0,734.12,0s1.42,17.14,13.24,28.56S777,41.37,777,41.37Z" transform="translate(0 0.1)"/></g><g id="shape_12" data-name="shape 12"><path d="M252.19,82.57" transform="translate(0 0.1)"/><rect class="cls-3" x="343.22" y="81.8" width="88.41" height="84.89"/><ellipse class="cls-18" cx="387.62" cy="123.41" rx="39.45" ry="38.02"/><ellipse class="cls-6" cx="387.62" cy="123.81" rx="26.4" ry="25.44"/><ellipse class="cls-19" cx="387.62" cy="123.81" rx="13.4" ry="12.91"/></g><g id="shape_13" data-name="shape 13"><rect class="cls-2" y="82.86" width="86.47" height="83.82"/><polygon class="cls-20" points="75.84 125.61 42.22 157.65 8.61 125.61 42.22 93.56 75.84 125.61"/><polygon class="cls-11" points="57.42 126.1 42.28 140.53 27.14 126.1 42.28 111.67 57.42 126.1"/><polygon class="cls-6" points="48.98 126.09 42.29 132.47 35.6 126.09 42.29 119.72 48.98 126.09"/><rect class="cls-13" x="86.16" y="83.12" width="86.07" height="83.57"/><polygon class="cls-6" points="86.16 82.86 129.19 124.73 172.22 82.86 86.16 82.86"/><polygon class="cls-1" points="172.22 166.68 129.19 124.73 86.16 166.68 172.22 166.68"/><rect class="cls-2" x="1037.11" width="86.8" height="83.72"/><path class="cls-6" d="M1123.82,41.65h-86.06c0,22.68,19.31,41.06,43.08,41.06,22.82,0,41.48-16.9,43-38.29Z" transform="translate(0 0.1)"/><path class="cls-3" d="M1124,41.65h-86.28c0-22.27,19.36-40.34,43.2-40.34,22.87,0,41.57,16.61,43.08,37.62Z" transform="translate(0 0.1)"/><path class="cls-2" d="M1082,13.79a28.56,28.56,0,1,0-1.44,57.1Z" transform="translate(0 0.1)"/><path class="cls-1" d="M1082,13.79a28.56,28.56,0,1,1-1.43,57.11Z" transform="translate(0 0.1)"/></g><g id="shape_14" data-name="shape 14"><rect class="cls-2" x="258.22" y="0.1" width="87.61" height="81.91"/><path class="cls-3" d="M343.23.9c0,44.11-35.49,80.12-80.07,82.22h-4.94V0h85C343.23.3,343.23.6,343.23.9Z" transform="translate(0 0.1)"/><path class="cls-1" d="M332.26,0c0,39.11-33.14,70.81-74,70.81V0Z" transform="translate(0 0.1)"/><path class="cls-6" d="M321.12,0c-.23,32.92-28.2,59.54-62.68,59.54h-.22V0Z" transform="translate(0 0.1)"/><path class="cls-3" d="M308.29,0V0c0,26.29-22.28,47.6-49.77,47.6h-.3V0Z" transform="translate(0 0.1)"/><path class="cls-2" d="M295.69,0c-.23,19.6-16.91,35.42-37.47,35.42V0Z" transform="translate(0 0.1)"/><path class="cls-6" d="M282.09,0c-.06,12.49-10.66,22.6-23.74,22.6h-.13V0Z" transform="translate(0 0.1)"/></g><g id="shape_15" data-name="shape 15"><rect class="cls-3" x="258.06" y="81.69" width="85.16" height="84.99"/><polygon class="cls-2" points="322.6 80.71 288.31 121.17 282.69 126.05 282.79 126.15 318.17 166.68 317.03 166.68 296.34 166.68 258.06 125.99 299.25 80.71 320.98 80.71 322.6 80.71"/><rect class="cls-2" x="314.91" y="90.11" width="28.31" height="65.66"/><polygon class="cls-1" points="343.22 82.91 300.7 127.28 338.5 166.68 317.03 166.68 279.41 127.22 279.79 126.82 284.31 121.91 320.98 82.12 343.22 82.12 343.22 82.91"/><polygon class="cls-6" points="343.22 82.12 343.22 102.72 319.81 127.54 343.22 149.56 343.22 166.68 337.51 166.68 298.98 127.56 339.58 82.12 343.22 82.12"/></g><g id="shape_16" data-name="shape 16"><rect class="cls-6" x="343.41" y="0.1" width="44.24" height="41.31"/><rect class="cls-3" x="387.65" y="0.1" width="44.24" height="41.31"/><rect class="cls-6" x="387.65" y="41.16" width="43.99" height="40.51"/><rect class="cls-3" x="343.41" y="41.16" width="44.24" height="39.55"/><path class="cls-1" d="M431.88,0V41h-.32C407.3,41,387.65,22.66,387.65.1V0Z" transform="translate(0 0.1)"/><path class="cls-2" d="M431.88,81.91V41.16h-.31c-24.15,0-43.71,18.2-43.71,40.65v.1Z" transform="translate(0 0.1)"/><path class="cls-2" d="M343.22,0V41h.32C367.9,41,387.65,22.66,387.65.1V0Z" transform="translate(0 0.1)"/><path class="cls-1" d="M343.41,81.91V41h.32c24.26,0,43.92,18.27,43.92,40.8v.1Z" transform="translate(0 0.1)"/></g><g id="shape_17" data-name="shape 17"><rect class="cls-1" x="862.11" y="83.71" width="88.66" height="83.07"/><polygon class="cls-21" points="947.14 125.36 906.62 87.56 866.11 125.36 906.62 163.15 947.14 125.36"/><polygon class="cls-22" points="933.62 125.05 906.68 99.93 879.75 125.05 906.68 150.18 933.62 125.05"/><polygon class="cls-4" points="919.95 125.2 906.95 113.07 893.95 125.2 906.95 137.33 919.95 125.2"/><polygon class="cls-23" points="911.53 124.83 906.95 120.57 902.38 124.83 906.95 129.1 911.53 124.83"/></g><g id="shape_18" data-name="shape 18"><rect class="cls-2" x="994.26" y="41.96" width="43.48" height="41.75"/><rect class="cls-12" x="950.78" y="41.96" width="43.48" height="41.76"/><rect class="cls-13" x="994.26" y="0.1" width="43.48" height="41.86"/><path class="cls-24" d="M904.42,16.8V56.86h.3c22.71,0,41.12-17.9,41.12-40v-.1Z" transform="translate(0 0.1)"/><path class="cls-6" d="M994.26.1V41.75h.31c23.84,0,43.16-18.61,43.16-41.56V.1Z" transform="translate(0 0.1)"/><rect class="cls-2" x="950.78" y="0.1" width="43.48" height="41.86"/><path class="cls-3" d="M950.78.1V41.75h.31c23.85,0,43.17-18.61,43.17-41.56V.1Z" transform="translate(0 0.1)"/><path class="cls-1" d="M994.26,41.65v42h.31c23.84,0,43.16-18.75,43.16-41.87v-.1Z" transform="translate(0 0.1)"/><path class="cls-6" d="M950.78,41.65V83.6h.31c23.85,0,43.17-18.73,43.17-41.85v-.1Z" transform="translate(0 0.1)"/></g><g id="shape_19" data-name="shape 19"><polygon class="cls-6" points="512.85 166.68 431.67 166.68 431.67 81.67 510.85 81.67 518.85 124.18 512.85 166.68"/><polygon class="cls-12" points="472.13 80.66 518.85 80.66 518.85 123.81 472.13 80.66"/><polygon class="cls-2" points="518.85 124.18 473.62 166.68 518.85 166.68 518.85 124.18"/><polygon class="cls-3" points="475.54 103.41 453.8 124.76 475.54 146.12 497.32 124.76 475.54 103.41"/><polygon class="cls-6" points="475.78 115.18 466.02 124.76 475.78 134.35 485.55 124.76 475.78 115.18"/><polygon class="cls-12" points="477.9 80.66 431.63 80.66 431.63 124.76 477.9 80.66"/><polygon class="cls-12" points="431.63 124.67 474.82 166.68 431.63 166.68 431.63 124.67"/></g><g id="shape_20" data-name="shape 20"><rect class="cls-13" x="776.79" y="0.1" width="85.32" height="83.3"/><polygon class="cls-6" points="776.78 83.41 819.45 41.75 862.11 83.41 776.78 83.41"/><polygon class="cls-1" points="862.11 0.1 819.45 41.75 776.78 0.1 862.11 0.1"/></g><g id="shape_21" data-name="shape 21"><rect class="cls-1" x="862.11" y="0.15" width="88.61" height="83.57"/><path class="cls-2" d="M862.11,83.62h88.6c0-23.64-19.88-42.8-44.36-42.8-23.48,0-42.69,17.61-44.24,39.91Z" transform="translate(0 0.1)"/><path class="cls-6" d="M862.11,40.82h88.6C950.69,18.28,930.83,0,906.35,0c-23.48,0-42.69,16.8-44.24,38.07Z" transform="translate(0 0.1)"/></g><g id="Layer_23" data-name="Layer 23"><rect class="cls-2" x="776.79" y="83.41" width="85.32" height="83.37"/><path class="cls-6" d="M862.11,125H776.79c0-22.63,19.14-41,42.71-41,22.62,0,41.11,16.86,42.61,38.2Z" transform="translate(0 0.1)"/><path class="cls-3" d="M862.3,124.49H776.76c0,22.62,19.2,41,42.82,41,22.67,0,41.22-16.86,42.72-38.21Z" transform="translate(0 0.1)"/><path class="cls-2" d="M820.6,153a28.59,28.59,0,0,1-1.43-57.16Z" transform="translate(0 0.1)"/><path class="cls-1" d="M820.64,153a28.59,28.59,0,0,0-1.43-57.16Z" transform="translate(0 0.1)"/></g><g id="shape_24" data-name="shape 24"><rect class="cls-3" x="950.56" y="83.71" width="87.17" height="83.07"/><polygon class="cls-6" points="955.99 143.31 976.29 161.92 996.51 143.31 976.25 124.53 955.99 143.31"/><polygon class="cls-2" points="996.51 143.31 1016.81 161.92 1037.03 143.31 1016.77 124.53 996.51 143.31"/><polygon class="cls-2" points="955.99 105.92 976.29 124.53 996.51 105.92 976.25 87.14 955.99 105.92"/><polygon class="cls-6" points="996.51 105.92 1016.81 124.53 1037.03 105.92 1016.77 87.14 996.51 105.92"/><polygon class="cls-1" points="976.25 124.48 996.55 143.09 1016.77 124.48 996.51 105.7 976.25 124.48"/></g><g id="shape_25" data-name="shape 25"><polygon class="cls-3" points="648.48 40.94 604.73 40.94 648.48 83.1 648.48 40.94"/><polygon class="cls-25" points="691.14 40.94 648.48 40.94 648.48 83.1 691.14 40.94"/><polygon class="cls-1" points="604.73 40.94 604.73 83.1 648.48 83.1 604.73 40.94"/><polygon class="cls-3" points="648.48 40.94 648.48 0.1 691.14 40.94 648.48 40.94"/><polygon class="cls-26" points="604.73 40.94 648.48 40.94 648.48 0.1 604.73 40.94"/><polygon class="cls-16" points="691.14 40.94 648.48 0.1 691.14 0.1 691.14 40.94"/><polygon class="cls-6" points="604.73 40.94 648.48 0.1 604.73 0.1 604.73 40.94"/><polygon class="cls-6" points="648.48 83.04 690.98 83.04 690.98 41 648.48 83.04"/></g></svg>