<svg id="Layer_1" data-name="Layer 1" xmlns="http://www.w3.org/2000/svg" width="141.65" height="141.65" viewBox="0 0 141.65 141.65"><defs><style>.cls-1,.cls-5{fill:#00a8ff;}.cls-1{stroke:#00a8ff;}.cls-1,.cls-2,.cls-3,.cls-4,.cls-5,.cls-6{stroke-miterlimit:10;}.cls-2,.cls-4{fill:#fff;}.cls-2,.cls-3,.cls-5{stroke:#fff;}.cls-2{stroke-width:2px;}.cls-3,.cls-6{fill:none;}.cls-3,.cls-5,.cls-6{stroke-linecap:round;}.cls-3,.cls-4,.cls-5,.cls-6{stroke-width:3px;}.cls-4{stroke:#04b389;}.cls-6{stroke:#0c206d;}</style></defs><title>team-icon</title><circle class="cls-1" cx="70.83" cy="70.83" r="70.33"/><path class="cls-2" d="M104.29,121.65" transform="translate(-3.57 -4.2)"/><path class="cls-3" d="M73.29,106.55" transform="translate(-3.57 -4.2)"/><path class="cls-4" d="M114.51,97.23" transform="translate(-3.57 -4.2)"/><path class="cls-4" d="M95,69.09" transform="translate(-3.57 -4.2)"/><path class="cls-3" d="M103.61,100.65" transform="translate(-3.57 -4.2)"/><path class="cls-4" d="M114.84,70.05" transform="translate(-3.57 -4.2)"/><circle class="cls-5" cx="97.08" cy="50.72" r="11.35"/><path class="cls-3" d="M75.71,91.92a24.58,24.58,0,0,1,49.15,0" transform="translate(-3.57 -4.2)"/><path class="cls-3" d="M45.67,100.65" transform="translate(-3.57 -4.2)"/><path class="cls-4" d="M69,70.05" transform="translate(-3.57 -4.2)"/><circle class="cls-5" cx="46.25" cy="50.72" r="11.35"/><path class="cls-3" d="M24.88,91.92a24.58,24.58,0,0,1,49.15,0" transform="translate(-3.57 -4.2)"/><circle class="cls-5" cx="71.74" cy="43.18" r="16.19"/><path class="cls-5" d="M39.74,108.65c0-24.05,15.69-43.55,35-43.55s35,19.5,35,43.55" transform="translate(-3.57 -4.2)"/><path class="cls-6" d="M50,97.23a24.58,24.58,0,0,1,49.15,0" transform="translate(-3.57 -4.2)"/></svg>